<?xml version="1.0" encoding="utf-8"?>
<!-- Generator: Adobe Illustrator 27.9.0, SVG Export Plug-In . SVG Version: 6.00 Build 0)  -->
<svg version="1.1" id="Layer_1" xmlns="http://www.w3.org/2000/svg" xmlns:xlink="http://www.w3.org/1999/xlink" x="0px" y="0px"
	 viewBox="0 0 595.28 841.89" style="enable-background:new 0 0 595.28 841.89;" xml:space="preserve">
<style type="text/css">
	.st0{opacity:0.4;fill:#FFFFFF;stroke:#323232;stroke-width:3;stroke-miterlimit:10;}
	.st1{fill:#323232;stroke:#323232;stroke-width:3;stroke-miterlimit:10;}
	.st2{fill:none;stroke:#323232;stroke-width:3;stroke-miterlimit:10;}
	.st3{fill:#323232;}
	.st4{font-family:'Quantify';}
	.st5{font-size:10px;}
</style>
<path class="st0" d="M324.78,393.68c-0.04,18.22-0.08,36.44-0.13,54.66c-14.63-0.11-29.26-0.22-43.89-0.32
	c-1.89-0.01-5.45-0.32-7.87-2.84c-2.44-2.54-2.51-6.05-2.52-8c-0.05-8.22-0.06-19.88,0.19-34.14c0.09-1.74,0.5-4.56,2.52-6.71
	c2.94-3.15,7.6-3.09,9.87-3.07C291.54,393.34,306.08,393.36,324.78,393.68z"/>
<line class="st1" x1="282.07" y1="414.93" x2="314.32" y2="415.08"/>
<g id="Layer_2">
</g>
<polyline class="st2" points="293.19,401.94 282.07,414.95 293.19,428.07 "/>
<path class="st2" d="M324.85,393.68c-0.04,18.22-0.08,36.44-0.13,54.66c-14.63-0.11-29.26-0.22-43.89-0.32
	c-1.89-0.01-5.45-0.32-7.87-2.84c-2.44-2.54-2.51-6.05-2.52-8c-0.05-8.22-0.06-19.88,0.19-34.14c0.09-1.74,0.5-4.56,2.52-6.71
	c2.94-3.15,7.6-3.09,9.87-3.07C291.61,393.34,306.15,393.36,324.85,393.68z"/>
<text transform="matrix(1 0 0 1 285.0565 439.6663)" class="st3 st4 st5">Home</text>
</svg>
